<?xml version="1.0" standalone="no"?>
<!DOCTYPE svg PUBLIC "-//W3C//DTD SVG 20010904//EN"
 "http://www.w3.org/TR/2001/REC-SVG-20010904/DTD/svg10.dtd">
<svg version="1.0" xmlns="http://www.w3.org/2000/svg"
 width="180.000000pt" height="180.000000pt" viewBox="0 0 180.000000 180.000000"
 preserveAspectRatio="xMidYMid meet">
<metadata>
Created by potrace 1.11, written by Peter Selinger 2001-2013
</metadata>
<g transform="translate(0.000000,180.000000) scale(0.100000,-0.100000)"
fill="#000000" stroke="none">
<path d="M925 1635 c-94 -18 -208 -72 -241 -114 -6 -8 -17 -11 -25 -9 -17 6
-349 -162 -349 -177 0 -9 28 -68 60 -125 8 -14 15 -27 15 -30 2 -10 50 -105
55 -110 3 -3 37 -66 74 -140 142 -280 437 -853 443 -860 5 -6 317 152 321 163
2 4 10 7 18 7 16 0 18 11 5 25 -5 6 -61 114 -126 240 -65 127 -155 303 -201
392 -48 93 -86 179 -89 202 -9 77 50 144 132 147 l47 2 33 98 c18 55 35 108
38 119 2 11 14 49 26 83 12 36 18 67 13 72 -9 9 -77 20 -149 24 -22 1 -67 -3
-100 -9z"/>
</g>
</svg>
