<?xml version="1.0" standalone="no"?>
<!DOCTYPE svg PUBLIC "-//W3C//DTD SVG 20010904//EN"
 "http://www.w3.org/TR/2001/REC-SVG-20010904/DTD/svg10.dtd">
<svg version="1.0" xmlns="http://www.w3.org/2000/svg"
 width="1000.000000pt" height="1000.000000pt" viewBox="0 0 1000.000000 1000.000000"
 preserveAspectRatio="xMidYMid meet">
<metadata>
Created by potrace 1.11, written by Peter Selinger 2001-2013
</metadata>
<g transform="translate(0.000000,1000.000000) scale(0.100000,-0.100000)"
fill="#000000" stroke="none">
<path d="M4610 7956 c-272 -30 -713 -77 -980 -106 -267 -28 -514 -57 -550 -65
-313 -66 -576 -269 -718 -556 -88 -178 -119 -401 -74 -539 6 -19 25 -165 42
-325 17 -159 60 -569 95 -910 36 -341 72 -678 80 -750 8 -71 11 -131 7 -133
-5 -1 0 -73 9 -160 9 -87 17 -185 17 -218 0 -32 8 -124 17 -203 9 -78 14 -148
12 -155 -3 -7 1 -68 9 -136 8 -69 16 -172 19 -230 3 -58 12 -166 20 -240 7
-74 14 -164 14 -200 1 -110 29 -219 68 -262 9 -10 25 -51 35 -91 24 -94 96
-243 159 -328 126 -171 324 -303 539 -360 71 -19 110 -23 240 -23 183 0 267
18 419 90 260 122 455 358 522 629 7 29 26 65 44 86 39 43 69 128 60 167 -3
15 -23 51 -45 80 -26 34 -40 63 -40 82 0 17 2 30 5 30 3 0 238 -122 522 -271
964 -505 1026 -537 1112 -563 505 -158 1051 123 1211 622 17 51 30 100 30 110
0 10 11 29 24 41 71 67 96 245 57 406 -27 106 -66 210 -110 283 -68 115 -195
253 -309 336 -60 43 -529 291 -582 307 -19 6 -70 9 -113 7 -42 -1 -76 0 -75 3
2 4 48 42 103 86 393 314 644 766 710 1283 9 69 22 153 29 187 7 34 14 132 15
218 2 125 -2 178 -20 268 -68 356 -248 686 -529 968 -283 285 -625 469 -1032
555 -106 22 -154 26 -348 29 -218 4 -241 3 -720 -49z"/>
<path d="M7876 5303 c-65 -263 -140 -457 -246 -628 l-42 -69 25 -21 c46 -37
128 -95 136 -95 4 0 27 55 49 123 84 248 111 401 119 660 3 103 4 187 2 187
-3 0 -22 -71 -43 -157z"/>
<path d="M8166 2602 c-30 -101 -94 -217 -206 -372 -134 -185 -220 -271 -398
-398 -238 -170 -273 -186 -617 -270 l-230 -56 -160 0 c-159 0 -162 0 -375 52
-342 82 -286 59 -768 314 -156 83 -284 149 -286 147 -179 -259 -247 -330 -451
-479 -192 -139 -299 -191 -500 -240 -330 -82 -380 -91 -504 -91 -111 0 -148 5
-359 51 -28 6 -57 10 -64 8 -16 -6 102 -88 203 -142 297 -158 647 -188 966
-81 227 76 341 153 588 395 199 196 234 223 328 258 71 27 190 29 281 6 33 -8
180 -73 326 -143 298 -145 431 -199 591 -241 400 -105 780 -42 1108 183 42 29
119 95 172 147 247 245 387 582 377 910 l-3 105 -19 -63z"/>
</g>
</svg>
