<?xml version="1.0" standalone="no"?>
<!DOCTYPE svg PUBLIC "-//W3C//DTD SVG 20010904//EN"
 "http://www.w3.org/TR/2001/REC-SVG-20010904/DTD/svg10.dtd">
<svg version="1.0" xmlns="http://www.w3.org/2000/svg"
 width="1000.000000pt" height="1000.000000pt" viewBox="0 0 1000.000000 1000.000000"
 preserveAspectRatio="xMidYMid meet">
<metadata>
Created by potrace 1.11, written by Peter Selinger 2001-2013
</metadata>
<g transform="translate(0.000000,1000.000000) scale(0.100000,-0.100000)"
fill="#000000" stroke="none">
<path d="M5197 8704 c-1 -1 -33 -4 -72 -7 -38 -4 -131 -13 -205 -21 -74 -8
-164 -18 -200 -21 -36 -3 -83 -8 -105 -11 -22 -2 -105 -11 -185 -19 -177 -18
-235 -25 -280 -30 -19 -3 -60 -7 -90 -10 -30 -3 -181 -19 -335 -35 -154 -17
-300 -32 -325 -35 -235 -23 -289 -32 -469 -75 -364 -87 -406 -105 -636 -268
-210 -150 -268 -209 -432 -442 -143 -204 -169 -269 -258 -655 -9 -38 -18 -77
-20 -85 -39 -166 -50 -309 -34 -445 12 -100 17 -147 29 -265 6 -58 13 -121 15
-140 2 -19 7 -60 10 -90 3 -30 7 -73 10 -95 3 -22 7 -60 9 -85 7 -65 26 -248
31 -295 2 -22 7 -67 10 -100 3 -33 8 -76 11 -95 2 -19 13 -123 24 -230 26
-263 50 -488 55 -530 2 -19 9 -82 15 -140 6 -58 13 -124 15 -147 3 -24 7 -62
10 -85 2 -24 9 -90 15 -148 6 -58 13 -121 15 -140 3 -19 14 -125 25 -235 11
-110 22 -216 25 -235 6 -45 12 -101 25 -230 6 -58 13 -127 15 -155 3 -27 8
-66 10 -85 2 -19 7 -64 11 -100 13 -146 112 -588 150 -677 34 -78 68 -140 117
-213 167 -248 260 -350 428 -469 57 -41 106 -78 107 -83 2 -4 7 -8 12 -8 5 0
35 -17 67 -38 107 -69 163 -91 330 -132 51 -12 90 -26 87 -31 -3 -5 2 -6 10
-3 8 3 48 -2 88 -11 40 -9 80 -18 88 -20 8 -2 34 -8 56 -14 23 -6 60 -12 82
-13 24 -1 39 -5 35 -11 -4 -6 -1 -7 8 -1 20 12 89 12 89 -1 0 -7 3 -7 8 0 10
14 62 16 62 2 0 -8 3 -9 8 -1 12 17 133 35 149 22 10 -8 12 -7 8 4 -3 8 0 15
7 15 7 0 33 5 57 11 25 6 49 9 53 6 4 -3 8 -1 8 4 0 5 19 13 43 17 23 5 44 9
47 9 62 18 112 26 121 20 7 -4 9 -3 6 3 -4 6 0 14 9 17 9 4 13 2 8 -5 -3 -6 4
-4 17 4 13 9 35 17 49 19 14 2 27 5 30 8 3 3 32 19 65 35 33 15 97 55 142 87
46 33 87 56 93 53 6 -3 7 1 4 9 -4 10 0 16 10 17 30 3 34 4 43 13 5 5 3 6 -4
2 -24 -13 -13 0 18 23 25 19 33 20 47 10 14 -11 15 -11 5 1 -10 11 -9 17 4 32
15 17 17 17 29 0 13 -16 14 -16 8 1 -8 22 53 90 70 80 6 -3 8 -3 4 2 -4 4 6
21 23 39 16 17 32 39 35 49 3 11 12 16 20 13 8 -3 12 -1 9 4 -7 11 20 56 47
81 10 9 18 20 18 24 0 16 52 75 61 70 5 -3 6 1 3 10 -5 13 -2 13 24 -2 22 -12
27 -20 19 -26 -8 -6 -6 -7 6 -3 23 7 49 -3 40 -17 -3 -6 -1 -7 5 -3 6 4 21 2
32 -4 18 -10 19 -14 8 -28 -12 -15 -11 -16 4 -3 23 17 49 7 42 -16 -4 -13 -3
-14 3 -5 11 15 63 0 63 -18 0 -6 3 -9 8 -7 11 8 113 -49 104 -58 -4 -5 -2 -5
5 -2 15 9 156 -67 146 -78 -5 -4 -3 -5 3 -2 11 7 196 -80 202 -94 2 -4 9 -6
16 -3 6 2 30 -3 51 -12 21 -9 48 -18 59 -20 53 -10 82 -17 91 -22 8 -5 41 -12
73 -14 6 -1 12 -5 12 -10 0 -5 4 -7 8 -4 8 5 132 -19 162 -31 8 -4 24 -8 36
-9 12 -1 43 -7 70 -11 27 -5 66 -9 87 -9 20 1 37 -3 37 -7 0 -5 5 -5 12 -1 7
4 36 9 65 9 29 1 56 5 60 8 3 4 13 1 21 -6 13 -9 14 -9 8 1 -5 8 1 12 18 13
14 1 29 2 34 3 69 18 124 26 133 20 8 -4 9 -3 5 4 -4 7 -1 13 6 13 14 1 29 5
41 9 4 1 15 3 25 5 9 1 24 5 32 8 30 13 111 27 121 22 5 -4 9 -1 9 4 0 6 7 11
16 11 9 0 13 -5 9 -12 -4 -7 -1 -6 7 2 14 16 62 40 79 40 6 0 7 -6 4 -13 -3
-6 2 -2 11 10 20 27 35 30 28 6 -3 -11 0 -10 7 3 6 12 27 29 47 39 42 19 167
101 197 128 10 10 25 15 32 13 7 -3 12 -1 10 3 -2 9 70 71 82 71 3 0 20 13 37
30 18 16 35 26 38 23 3 -4 6 -2 6 3 0 5 10 20 21 34 11 14 17 19 13 11 -5 -9
-3 -12 4 -7 7 4 12 14 12 22 0 8 5 12 10 9 6 -3 10 -1 10 5 0 17 26 40 35 32
5 -4 5 -2 1 5 -6 12 7 33 49 78 11 11 21 25 22 30 1 6 13 24 26 40 13 17 41
55 62 85 21 30 43 58 49 62 6 4 7 8 3 8 -5 0 0 12 10 28 16 23 54 98 58 112
13 52 41 118 48 113 6 -3 7 -1 3 5 -9 15 4 93 15 86 5 -3 6 1 3 9 -3 8 0 35 7
58 6 24 13 53 15 64 2 11 8 40 14 65 20 78 25 104 34 155 1 6 4 15 7 20 4 6 5
69 4 140 -2 109 -8 156 -39 290 -20 88 -41 176 -46 195 -5 19 -19 70 -30 113
-26 99 -75 202 -145 307 -31 45 -61 87 -66 94 -5 6 -36 47 -68 91 -73 101
-142 171 -248 250 -29 21 -53 42 -53 45 1 15 58 79 65 72 5 -4 5 -2 1 5 -8 14
58 145 68 135 4 -3 4 1 1 10 -3 8 0 22 7 29 7 8 14 21 16 29 2 8 10 31 20 50
9 19 15 41 14 48 -2 6 1 12 5 12 5 0 9 8 10 18 1 9 7 31 14 47 15 36 16 41 18
61 0 8 4 13 9 11 4 -3 7 9 8 26 0 18 15 91 32 162 51 202 83 347 88 385 2 19
7 55 10 80 9 65 10 311 1 405 -7 80 -41 263 -72 385 -9 36 -18 74 -20 85 -4
26 -10 49 -25 105 -7 25 -14 52 -16 60 -41 184 -151 423 -281 615 -262 387
-376 508 -693 736 -211 153 -301 207 -460 278 -80 36 -290 107 -343 117 -18 3
-106 23 -197 45 -258 63 -389 81 -578 83 -52 1 -94 0 -95 0z"/>
<path d="M5130 1939 c0 -5 5 -7 10 -4 6 3 10 8 10 11 0 2 -4 4 -10 4 -5 0 -10
-5 -10 -11z"/>
<path d="M5170 1939 c0 -5 5 -7 10 -4 6 3 10 8 10 11 0 2 -4 4 -10 4 -5 0 -10
-5 -10 -11z"/>
<path d="M5220 1920 c-9 -6 -10 -10 -3 -10 6 0 15 5 18 10 8 12 4 12 -15 0z"/>
<path d="M5135 1900 c-3 -5 -1 -10 4 -10 6 0 11 5 11 10 0 6 -2 10 -4 10 -3 0
-8 -4 -11 -10z"/>
<path d="M7707 1879 c7 -7 15 -10 18 -7 3 3 -2 9 -12 12 -14 6 -15 5 -6 -5z"/>
<path d="M5054 1822 c4 -3 14 -7 22 -8 9 -1 13 0 10 4 -4 3 -14 7 -22 8 -9 1
-13 0 -10 -4z"/>
<path d="M7873 1805 c0 -8 4 -12 9 -9 5 3 6 10 3 15 -9 13 -12 11 -12 -6z"/>
<path d="M7596 1793 c-6 -14 -5 -15 5 -6 7 7 10 15 7 18 -3 3 -9 -2 -12 -12z"/>
<path d="M7630 1806 c0 -2 7 -7 16 -10 8 -3 12 -2 9 4 -6 10 -25 14 -25 6z"/>
<path d="M5035 1771 c-3 -5 -2 -12 3 -15 5 -3 9 1 9 9 0 17 -3 19 -12 6z"/>
<path d="M7550 1756 c7 -7 13 -7 20 0 6 6 3 10 -10 10 -13 0 -16 -4 -10 -10z"/>
<path d="M4955 1739 c-3 -4 2 -6 10 -5 21 3 28 13 10 13 -9 0 -18 -4 -20 -8z"/>
<path d="M7570 1720 c0 -5 5 -10 11 -10 5 0 7 5 4 10 -3 6 -8 10 -11 10 -2 0
-4 -4 -4 -10z"/>
<path d="M5235 1691 c-3 -5 -2 -12 3 -15 5 -3 9 1 9 9 0 17 -3 19 -12 6z"/>
<path d="M4906 1682 c-3 -5 1 -9 9 -9 8 0 15 4 15 9 0 4 -4 8 -9 8 -6 0 -12
-4 -15 -8z"/>
<path d="M7390 1680 c0 -5 5 -10 11 -10 5 0 7 5 4 10 -3 6 -8 10 -11 10 -2 0
-4 -4 -4 -10z"/>
<path d="M7515 1681 c-3 -5 -2 -12 3 -15 5 -3 9 1 9 9 0 17 -3 19 -12 6z"/>
<path d="M7336 1653 c-6 -14 -5 -15 5 -6 7 7 10 15 7 18 -3 3 -9 -2 -12 -12z"/>
<path d="M7386 1642 c-3 -5 1 -9 9 -9 8 0 12 4 9 9 -3 4 -7 8 -9 8 -2 0 -6 -4
-9 -8z"/>
<path d="M4876 1627 c3 -10 9 -15 12 -12 3 3 0 11 -7 18 -10 9 -11 8 -5 -6z"/>
<path d="M7335 1620 c3 -5 8 -10 11 -10 2 0 4 5 4 10 0 6 -5 10 -11 10 -5 0
-7 -4 -4 -10z"/>
<path d="M7510 1621 c0 -6 4 -12 8 -15 5 -3 9 1 9 9 0 8 -4 15 -9 15 -4 0 -8
-4 -8 -9z"/>
<path d="M7333 1585 c0 -8 4 -12 9 -9 5 3 6 10 3 15 -9 13 -12 11 -12 -6z"/>
<path d="M4835 1579 c-3 -4 2 -6 10 -5 21 3 28 13 10 13 -9 0 -18 -4 -20 -8z"/>
<path d="M7210 1579 c0 -5 5 -7 10 -4 6 3 10 8 10 11 0 2 -4 4 -10 4 -5 0 -10
-5 -10 -11z"/>
<path d="M7250 1579 c0 -5 5 -7 10 -4 6 3 10 8 10 11 0 2 -4 4 -10 4 -5 0 -10
-5 -10 -11z"/>
<path d="M4760 1560 c-9 -6 -10 -10 -3 -10 6 0 15 5 18 10 8 12 4 12 -15 0z"/>
<path d="M4819 1548 c-5 -18 -6 -38 -1 -34 7 8 12 36 6 36 -2 0 -4 -1 -5 -2z"/>
<path d="M6970 1539 c0 -5 5 -7 10 -4 6 3 10 8 10 11 0 2 -4 4 -10 4 -5 0 -10
-5 -10 -11z"/>
<path d="M7073 1515 c0 -8 4 -12 9 -9 5 3 6 10 3 15 -9 13 -12 11 -12 -6z"/>
<path d="M4730 1499 c0 -5 5 -7 10 -4 6 3 10 8 10 11 0 2 -4 4 -10 4 -5 0 -10
-5 -10 -11z"/>
<path d="M6815 1500 c3 -5 8 -10 11 -10 2 0 4 5 4 10 0 6 -5 10 -11 10 -5 0
-7 -4 -4 -10z"/>
<path d="M7230 1500 c0 -5 5 -10 11 -10 5 0 7 5 4 10 -3 6 -8 10 -11 10 -2 0
-4 -4 -4 -10z"/>
<path d="M4835 1489 c-4 -6 -5 -12 -2 -15 2 -3 7 2 10 11 7 17 1 20 -8 4z"/>
<path d="M4630 1482 c0 -5 7 -9 15 -9 8 0 12 4 9 9 -3 4 -9 8 -15 8 -5 0 -9
-4 -9 -8z"/>
<path d="M6910 1485 c0 -5 5 -17 10 -25 5 -8 10 -10 10 -5 0 6 -5 17 -10 25
-5 8 -10 11 -10 5z"/>
<path d="M6990 1459 c0 -5 5 -7 10 -4 6 3 10 8 10 11 0 2 -4 4 -10 4 -5 0 -10
-5 -10 -11z"/>
<path d="M4746 1438 c3 -5 10 -6 15 -3 13 9 11 12 -6 12 -8 0 -12 -4 -9 -9z"/>
<path d="M6836 1442 c-3 -5 1 -9 9 -9 8 0 12 4 9 9 -3 4 -7 8 -9 8 -2 0 -6 -4
-9 -8z"/>
<path d="M4610 1420 c0 -5 5 -10 11 -10 5 0 7 5 4 10 -3 6 -8 10 -11 10 -2 0
-4 -4 -4 -10z"/>
<path d="M4655 1420 c3 -5 8 -10 11 -10 2 0 4 5 4 10 0 6 -5 10 -11 10 -5 0
-7 -4 -4 -10z"/>
<path d="M4493 1351 c0 -11 5 -18 9 -15 4 3 5 11 1 19 -7 21 -12 19 -10 -4z"/>
<path d="M4526 1342 c-3 -5 1 -9 9 -9 8 0 12 4 9 9 -3 4 -7 8 -9 8 -2 0 -6 -4
-9 -8z"/>
<path d="M4426 1322 c-3 -5 1 -9 9 -9 8 0 12 4 9 9 -3 4 -7 8 -9 8 -2 0 -6 -4
-9 -8z"/>
<path d="M4499 1308 c-5 -18 -6 -38 -1 -34 7 8 12 36 6 36 -2 0 -4 -1 -5 -2z"/>
<path d="M4353 1285 c0 -8 4 -12 9 -9 5 3 6 10 3 15 -9 13 -12 11 -12 -6z"/>
<path d="M4190 1279 c0 -5 5 -7 10 -4 6 3 10 8 10 11 0 2 -4 4 -10 4 -5 0 -10
-5 -10 -11z"/>
<path d="M4425 1280 c-3 -6 1 -7 9 -4 18 7 21 14 7 14 -6 0 -13 -4 -16 -10z"/>
<path d="M4593 1275 c0 -8 4 -12 9 -9 5 3 6 10 3 15 -9 13 -12 11 -12 -6z"/>
<path d="M4236 1247 c3 -10 9 -15 12 -12 3 3 0 11 -7 18 -10 9 -11 8 -5 -6z"/>
<path d="M3275 1240 c-3 -5 -1 -10 4 -10 6 0 11 5 11 10 0 6 -2 10 -4 10 -3 0
-8 -4 -11 -10z"/>
<path d="M4185 1240 c-3 -6 1 -7 9 -4 18 7 21 14 7 14 -6 0 -13 -4 -16 -10z"/>
<path d="M4351 1233 c7 -12 15 -20 18 -17 3 2 -3 12 -13 22 -17 16 -18 16 -5
-5z"/>
<path d="M3974 1218 c-4 -7 -3 -10 1 -5 5 4 18 -1 29 -10 21 -18 21 -18 2 5
-22 26 -23 26 -32 10z"/>
<path d="M4095 1220 c3 -5 8 -10 11 -10 2 0 4 5 4 10 0 6 -5 10 -11 10 -5 0
-7 -4 -4 -10z"/>
<path d="M4294 1216 c1 -8 5 -18 8 -22 4 -3 5 1 4 10 -1 8 -5 18 -8 22 -4 3
-5 -1 -4 -10z"/>
<path d="M4234 1202 c4 -3 14 -7 22 -8 9 -1 13 0 10 4 -4 3 -14 7 -22 8 -9 1
-13 0 -10 -4z"/>
<path d="M4540 1206 c0 -2 8 -10 18 -17 15 -13 16 -12 3 4 -13 16 -21 21 -21
13z"/>
<path d="M4193 1045 c0 -8 4 -12 9 -9 5 3 6 10 3 15 -9 13 -12 11 -12 -6z"/>
<path d="M3990 1041 c0 -6 4 -13 10 -16 6 -3 7 1 4 9 -7 18 -14 21 -14 7z"/>
</g>
</svg>
